<mxfile host="app.diagrams.net" modified="2021-09-16T09:20:09.952Z" agent="5.0 (Macintosh; Intel Mac OS X 10_15_7) AppleWebKit/537.36 (KHTML, like Gecko) Chrome/93.0.4577.63 Safari/537.36" etag="p6ZNC0_67qMKK3nGAiPI" version="14.9.4" type="github">
  <diagram id="Z_Vj2MmoggTXDy11bzeF" name="Page-1">
    <mxGraphModel dx="1186" dy="654" grid="1" gridSize="10" guides="1" tooltips="1" connect="1" arrows="1" fold="1" page="1" pageScale="1" pageWidth="850" pageHeight="1100" math="0" shadow="0">
      <root>
        <mxCell id="0" />
        <mxCell id="1" parent="0" />
        <mxCell id="NOU3lGueeJot1g6p17YN-5" value="" style="endArrow=oval;html=1;exitX=1;exitY=0.5;exitDx=0;exitDy=0;strokeWidth=4;endFill=1;" edge="1" parent="1" source="WfSzIGiv-zTd-1wvaPKo-5">
          <mxGeometry width="50" height="50" relative="1" as="geometry">
            <mxPoint x="35" y="471" as="sourcePoint" />
            <mxPoint x="850" y="477" as="targetPoint" />
          </mxGeometry>
        </mxCell>
        <mxCell id="NOU3lGueeJot1g6p17YN-1" value="" style="endArrow=oval;html=1;strokeWidth=4;endFill=1;startArrow=oval;startFill=1;" edge="1" parent="1">
          <mxGeometry width="50" height="50" relative="1" as="geometry">
            <mxPoint x="21" y="399" as="sourcePoint" />
            <mxPoint x="850" y="399" as="targetPoint" />
          </mxGeometry>
        </mxCell>
        <mxCell id="WfSzIGiv-zTd-1wvaPKo-4" value="" style="ellipse;whiteSpace=wrap;html=1;shadow=0;labelBackgroundColor=#EA6B66;strokeColor=#666666;strokeWidth=4;fillColor=#f5f5f5;fontColor=#333333;" parent="1" vertex="1">
          <mxGeometry x="142" y="541" width="20" height="20" as="geometry" />
        </mxCell>
        <mxCell id="WfSzIGiv-zTd-1wvaPKo-5" value="" style="ellipse;whiteSpace=wrap;html=1;shadow=0;labelBackgroundColor=#EA6B66;strokeColor=#d6b656;strokeWidth=4;fillColor=#fff2cc;" parent="1" vertex="1">
          <mxGeometry x="15" y="461" width="20" height="20" as="geometry" />
        </mxCell>
        <mxCell id="WfSzIGiv-zTd-1wvaPKo-11" value="" style="edgeStyle=elbowEdgeStyle;elbow=horizontal;endArrow=classic;html=1;strokeWidth=4;entryX=0;entryY=0.5;entryDx=0;entryDy=0;" parent="1" target="WfSzIGiv-zTd-1wvaPKo-4" edge="1">
          <mxGeometry width="50" height="50" relative="1" as="geometry">
            <mxPoint x="92" y="471" as="sourcePoint" />
            <mxPoint x="122" y="551" as="targetPoint" />
          </mxGeometry>
        </mxCell>
        <mxCell id="WfSzIGiv-zTd-1wvaPKo-14" value="" style="edgeStyle=elbowEdgeStyle;elbow=horizontal;endArrow=classic;html=1;strokeWidth=4;entryX=0;entryY=0.5;entryDx=0;entryDy=0;" parent="1" edge="1">
          <mxGeometry width="50" height="50" relative="1" as="geometry">
            <mxPoint x="55" y="471" as="sourcePoint" />
            <mxPoint x="105" y="610" as="targetPoint" />
          </mxGeometry>
        </mxCell>
        <mxCell id="WfSzIGiv-zTd-1wvaPKo-15" value="" style="ellipse;whiteSpace=wrap;html=1;shadow=0;labelBackgroundColor=#EA6B66;strokeColor=#d6b656;strokeWidth=4;fillColor=#fff2cc;" parent="1" vertex="1">
          <mxGeometry x="69" y="462" width="20" height="20" as="geometry" />
        </mxCell>
        <mxCell id="WfSzIGiv-zTd-1wvaPKo-16" value="" style="ellipse;whiteSpace=wrap;html=1;shadow=0;labelBackgroundColor=#EA6B66;strokeColor=#d6b656;strokeWidth=4;fillColor=#fff2cc;" parent="1" vertex="1">
          <mxGeometry x="107" y="462" width="20" height="20" as="geometry" />
        </mxCell>
        <mxCell id="WfSzIGiv-zTd-1wvaPKo-17" value="" style="endArrow=oval;html=1;exitX=1;exitY=0.5;exitDx=0;exitDy=0;strokeWidth=4;endFill=1;" parent="1" edge="1">
          <mxGeometry width="50" height="50" relative="1" as="geometry">
            <mxPoint x="160" y="551" as="sourcePoint" />
            <mxPoint x="410" y="551" as="targetPoint" />
          </mxGeometry>
        </mxCell>
        <mxCell id="WfSzIGiv-zTd-1wvaPKo-18" value="" style="edgeStyle=elbowEdgeStyle;elbow=horizontal;endArrow=classic;html=1;strokeWidth=4;exitX=0.5;exitY=0;exitDx=0;exitDy=0;entryX=0.5;entryY=1;entryDx=0;entryDy=0;" parent="1" source="WfSzIGiv-zTd-1wvaPKo-22" target="WfSzIGiv-zTd-1wvaPKo-19" edge="1">
          <mxGeometry width="50" height="50" relative="1" as="geometry">
            <mxPoint x="467" y="534" as="sourcePoint" />
            <mxPoint x="404" y="491" as="targetPoint" />
            <Array as="points">
              <mxPoint x="404" y="521" />
            </Array>
          </mxGeometry>
        </mxCell>
        <mxCell id="WfSzIGiv-zTd-1wvaPKo-19" value="" style="ellipse;whiteSpace=wrap;html=1;shadow=0;labelBackgroundColor=#EA6B66;strokeColor=#d6b656;strokeWidth=4;fillColor=#fff2cc;" parent="1" vertex="1">
          <mxGeometry x="394" y="461" width="20" height="20" as="geometry" />
        </mxCell>
        <mxCell id="WfSzIGiv-zTd-1wvaPKo-20" value="" style="ellipse;whiteSpace=wrap;html=1;shadow=0;labelBackgroundColor=#EA6B66;strokeColor=#666666;strokeWidth=4;fillColor=#f5f5f5;fontColor=#333333;" parent="1" vertex="1">
          <mxGeometry x="237" y="541" width="20" height="20" as="geometry" />
        </mxCell>
        <mxCell id="WfSzIGiv-zTd-1wvaPKo-21" value="" style="ellipse;whiteSpace=wrap;html=1;shadow=0;labelBackgroundColor=#EA6B66;strokeColor=#666666;strokeWidth=4;fillColor=#f5f5f5;fontColor=#333333;" parent="1" vertex="1">
          <mxGeometry x="314" y="541" width="20" height="20" as="geometry" />
        </mxCell>
        <mxCell id="WfSzIGiv-zTd-1wvaPKo-22" value="" style="ellipse;whiteSpace=wrap;html=1;shadow=0;labelBackgroundColor=#EA6B66;strokeColor=#666666;strokeWidth=4;fillColor=#f5f5f5;fontColor=#333333;" parent="1" vertex="1">
          <mxGeometry x="394" y="541" width="20" height="20" as="geometry" />
        </mxCell>
        <mxCell id="WfSzIGiv-zTd-1wvaPKo-24" value="" style="endArrow=oval;html=1;strokeWidth=4;endFill=1;" parent="1" edge="1">
          <mxGeometry width="50" height="50" relative="1" as="geometry">
            <mxPoint x="120" y="610" as="sourcePoint" />
            <mxPoint x="616" y="610" as="targetPoint" />
          </mxGeometry>
        </mxCell>
        <mxCell id="WfSzIGiv-zTd-1wvaPKo-26" value="" style="ellipse;whiteSpace=wrap;html=1;shadow=0;labelBackgroundColor=#EA6B66;strokeColor=#666666;strokeWidth=4;fillColor=#f5f5f5;fontColor=#333333;" parent="1" vertex="1">
          <mxGeometry x="201" y="600" width="20" height="20" as="geometry" />
        </mxCell>
        <mxCell id="WfSzIGiv-zTd-1wvaPKo-27" value="" style="ellipse;whiteSpace=wrap;html=1;shadow=0;labelBackgroundColor=#EA6B66;strokeColor=#666666;strokeWidth=4;fillColor=#f5f5f5;fontColor=#333333;" parent="1" vertex="1">
          <mxGeometry x="278" y="600" width="20" height="20" as="geometry" />
        </mxCell>
        <mxCell id="WfSzIGiv-zTd-1wvaPKo-28" value="" style="ellipse;whiteSpace=wrap;html=1;shadow=0;labelBackgroundColor=#EA6B66;strokeColor=#666666;strokeWidth=4;fillColor=#f5f5f5;fontColor=#333333;" parent="1" vertex="1">
          <mxGeometry x="384" y="600" width="20" height="20" as="geometry" />
        </mxCell>
        <mxCell id="WfSzIGiv-zTd-1wvaPKo-30" value="" style="edgeStyle=elbowEdgeStyle;elbow=horizontal;endArrow=classic;html=1;strokeWidth=4;" parent="1" edge="1">
          <mxGeometry width="50" height="50" relative="1" as="geometry">
            <mxPoint x="624" y="610" as="sourcePoint" />
            <mxPoint x="614" y="490" as="targetPoint" />
            <Array as="points">
              <mxPoint x="614" y="540" />
              <mxPoint x="674" y="541" />
            </Array>
          </mxGeometry>
        </mxCell>
        <mxCell id="WfSzIGiv-zTd-1wvaPKo-32" value="feature/PPAP-XXX" style="text;html=1;strokeColor=none;fillColor=none;align=center;verticalAlign=middle;whiteSpace=wrap;rounded=0;shadow=0;labelBackgroundColor=none;fontStyle=1" parent="1" vertex="1">
          <mxGeometry x="133" y="518" width="120" height="20" as="geometry" />
        </mxCell>
        <mxCell id="WfSzIGiv-zTd-1wvaPKo-33" value="feature/PPAP-ZZZ" style="text;html=1;strokeColor=none;fillColor=none;align=center;verticalAlign=middle;whiteSpace=wrap;rounded=0;shadow=0;labelBackgroundColor=none;fontStyle=1" parent="1" vertex="1">
          <mxGeometry x="97" y="576" width="120" height="20" as="geometry" />
        </mxCell>
        <mxCell id="WfSzIGiv-zTd-1wvaPKo-34" value="" style="endArrow=oval;html=1;strokeWidth=4;endFill=1;startArrow=oval;startFill=1;" parent="1" edge="1">
          <mxGeometry width="50" height="50" relative="1" as="geometry">
            <mxPoint x="400" y="400" as="sourcePoint" />
            <mxPoint x="500" y="400" as="targetPoint" />
          </mxGeometry>
        </mxCell>
        <mxCell id="WfSzIGiv-zTd-1wvaPKo-35" value="" style="ellipse;whiteSpace=wrap;html=1;shadow=0;labelBackgroundColor=#EA6B66;strokeColor=#6c8ebf;strokeWidth=4;fillColor=#dae8fc;" parent="1" vertex="1">
          <mxGeometry x="395" y="391" width="20" height="20" as="geometry" />
        </mxCell>
        <mxCell id="WfSzIGiv-zTd-1wvaPKo-36" value="" style="edgeStyle=elbowEdgeStyle;elbow=horizontal;endArrow=classic;html=1;strokeWidth=4;entryX=0.5;entryY=1;entryDx=0;entryDy=0;" parent="1" edge="1">
          <mxGeometry width="50" height="50" relative="1" as="geometry">
            <mxPoint x="405" y="460" as="sourcePoint" />
            <mxPoint x="405" y="412" as="targetPoint" />
            <Array as="points">
              <mxPoint x="405" y="452" />
            </Array>
          </mxGeometry>
        </mxCell>
        <mxCell id="WfSzIGiv-zTd-1wvaPKo-37" value="" style="endArrow=oval;html=1;strokeWidth=4;endFill=1;startArrow=oval;startFill=1;" parent="1" edge="1">
          <mxGeometry width="50" height="50" relative="1" as="geometry">
            <mxPoint x="21" y="321" as="sourcePoint" />
            <mxPoint x="850" y="321" as="targetPoint" />
          </mxGeometry>
        </mxCell>
        <mxCell id="WfSzIGiv-zTd-1wvaPKo-38" value="" style="ellipse;whiteSpace=wrap;html=1;shadow=0;labelBackgroundColor=#EA6B66;strokeColor=#82b366;strokeWidth=4;fillColor=#d5e8d4;" parent="1" vertex="1">
          <mxGeometry x="490" y="312" width="20" height="20" as="geometry" />
        </mxCell>
        <mxCell id="WfSzIGiv-zTd-1wvaPKo-39" value="" style="ellipse;whiteSpace=wrap;html=1;shadow=0;labelBackgroundColor=#EA6B66;strokeColor=#6c8ebf;strokeWidth=4;fillColor=#dae8fc;" parent="1" vertex="1">
          <mxGeometry x="490" y="391" width="20" height="20" as="geometry" />
        </mxCell>
        <mxCell id="WfSzIGiv-zTd-1wvaPKo-40" value="" style="edgeStyle=elbowEdgeStyle;elbow=horizontal;endArrow=classic;html=1;strokeWidth=4;entryX=0.5;entryY=1;entryDx=0;entryDy=0;" parent="1" edge="1">
          <mxGeometry width="50" height="50" relative="1" as="geometry">
            <mxPoint x="500" y="390" as="sourcePoint" />
            <mxPoint x="500" y="335" as="targetPoint" />
            <Array as="points">
              <mxPoint x="500" y="375" />
            </Array>
          </mxGeometry>
        </mxCell>
        <mxCell id="WfSzIGiv-zTd-1wvaPKo-41" value="" style="ellipse;whiteSpace=wrap;html=1;shadow=0;labelBackgroundColor=#EA6B66;strokeColor=#d6b656;strokeWidth=4;fillColor=#fff2cc;" parent="1" vertex="1">
          <mxGeometry x="507" y="464" width="20" height="20" as="geometry" />
        </mxCell>
        <mxCell id="WfSzIGiv-zTd-1wvaPKo-42" value="" style="edgeStyle=elbowEdgeStyle;elbow=horizontal;endArrow=classic;html=1;strokeWidth=4;dashed=1;" parent="1" edge="1">
          <mxGeometry width="50" height="50" relative="1" as="geometry">
            <mxPoint x="517" y="320" as="sourcePoint" />
            <mxPoint x="517" y="459" as="targetPoint" />
            <Array as="points">
              <mxPoint x="517" y="449" />
              <mxPoint x="526.5" y="409" />
              <mxPoint x="526.5" y="439" />
              <mxPoint x="526.5" y="419" />
              <mxPoint x="526.5" y="419" />
              <mxPoint x="526.5" y="439" />
              <mxPoint x="516.5" y="369" />
            </Array>
          </mxGeometry>
        </mxCell>
        <mxCell id="WfSzIGiv-zTd-1wvaPKo-43" value="" style="endArrow=oval;html=1;exitX=1;exitY=0.5;exitDx=0;exitDy=0;strokeWidth=4;endFill=1;" parent="1" edge="1">
          <mxGeometry width="50" height="50" relative="1" as="geometry">
            <mxPoint x="590" y="240" as="sourcePoint" />
            <mxPoint x="680" y="240" as="targetPoint" />
          </mxGeometry>
        </mxCell>
        <mxCell id="WfSzIGiv-zTd-1wvaPKo-44" value="" style="ellipse;whiteSpace=wrap;html=1;shadow=0;labelBackgroundColor=#EA6B66;strokeColor=#b85450;strokeWidth=4;fillColor=#f8cecc;" parent="1" vertex="1">
          <mxGeometry x="582" y="230" width="20" height="20" as="geometry" />
        </mxCell>
        <mxCell id="WfSzIGiv-zTd-1wvaPKo-45" value="" style="ellipse;whiteSpace=wrap;html=1;shadow=0;labelBackgroundColor=#EA6B66;strokeColor=#b85450;strokeWidth=4;fillColor=#f8cecc;" parent="1" vertex="1">
          <mxGeometry x="668" y="230" width="20" height="20" as="geometry" />
        </mxCell>
        <mxCell id="WfSzIGiv-zTd-1wvaPKo-48" value="" style="edgeStyle=elbowEdgeStyle;elbow=horizontal;endArrow=classic;html=1;strokeWidth=4;entryX=0.5;entryY=1;entryDx=0;entryDy=0;" parent="1" target="WfSzIGiv-zTd-1wvaPKo-44" edge="1">
          <mxGeometry width="50" height="50" relative="1" as="geometry">
            <mxPoint x="592" y="317" as="sourcePoint" />
            <mxPoint x="591" y="262" as="targetPoint" />
            <Array as="points" />
          </mxGeometry>
        </mxCell>
        <mxCell id="WfSzIGiv-zTd-1wvaPKo-49" value="" style="edgeStyle=elbowEdgeStyle;elbow=horizontal;endArrow=classic;html=1;strokeWidth=4;exitX=0.5;exitY=1;exitDx=0;exitDy=0;entryX=0.5;entryY=0;entryDx=0;entryDy=0;" parent="1" edge="1" target="NOU3lGueeJot1g6p17YN-7">
          <mxGeometry width="50" height="50" relative="1" as="geometry">
            <mxPoint x="679" y="250" as="sourcePoint" />
            <mxPoint x="678" y="380" as="targetPoint" />
            <Array as="points">
              <mxPoint x="678" y="250" />
            </Array>
          </mxGeometry>
        </mxCell>
        <mxCell id="WfSzIGiv-zTd-1wvaPKo-50" value="" style="ellipse;whiteSpace=wrap;html=1;shadow=0;labelBackgroundColor=#EA6B66;strokeColor=#d6b656;strokeWidth=4;fillColor=#fff2cc;" parent="1" vertex="1">
          <mxGeometry x="604" y="466" width="20" height="20" as="geometry" />
        </mxCell>
        <mxCell id="WfSzIGiv-zTd-1wvaPKo-29" value="" style="ellipse;whiteSpace=wrap;html=1;shadow=0;labelBackgroundColor=#EA6B66;strokeColor=#666666;strokeWidth=4;fillColor=#f5f5f5;fontColor=#333333;" parent="1" vertex="1">
          <mxGeometry x="604" y="599" width="20" height="20" as="geometry" />
        </mxCell>
        <mxCell id="WfSzIGiv-zTd-1wvaPKo-23" value="" style="ellipse;whiteSpace=wrap;html=1;shadow=0;labelBackgroundColor=#EA6B66;strokeColor=#666666;strokeWidth=4;fillColor=#f5f5f5;fontColor=#333333;" parent="1" vertex="1">
          <mxGeometry x="106" y="600" width="20" height="20" as="geometry" />
        </mxCell>
        <mxCell id="WfSzIGiv-zTd-1wvaPKo-57" value="main (&lt;span style=&quot;background-color: rgb(255 , 242 , 204)&quot;&gt;DEVELOP&lt;/span&gt;)" style="text;html=1;strokeColor=none;fillColor=none;align=center;verticalAlign=middle;whiteSpace=wrap;rounded=0;shadow=0;labelBackgroundColor=none;fontStyle=1" parent="1" vertex="1">
          <mxGeometry x="841" y="466" width="139" height="20" as="geometry" />
        </mxCell>
        <mxCell id="WfSzIGiv-zTd-1wvaPKo-59" value="prod (&lt;span style=&quot;background-color: rgb(213 , 232 , 212)&quot;&gt;PROD&lt;/span&gt;)" style="text;html=1;strokeColor=none;fillColor=none;align=center;verticalAlign=middle;whiteSpace=wrap;rounded=0;shadow=0;labelBackgroundColor=none;fontStyle=1" parent="1" vertex="1">
          <mxGeometry x="845" y="310" width="115" height="20" as="geometry" />
        </mxCell>
        <mxCell id="WfSzIGiv-zTd-1wvaPKo-60" value="hotfix/PPAP-YYY" style="text;html=1;strokeColor=none;fillColor=none;align=center;verticalAlign=middle;whiteSpace=wrap;rounded=0;shadow=0;labelBackgroundColor=none;fontStyle=1" parent="1" vertex="1">
          <mxGeometry x="578" y="204" width="110" height="20" as="geometry" />
        </mxCell>
        <mxCell id="WfSzIGiv-zTd-1wvaPKo-61" value="&lt;font style=&quot;font-size: 14px&quot;&gt;1&lt;/font&gt;" style="ellipse;whiteSpace=wrap;html=1;aspect=fixed;shadow=0;labelBackgroundColor=none;strokeColor=#EA6B66;strokeWidth=0;fillColor=#000912;fontColor=#FFFFFF;" parent="1" vertex="1">
          <mxGeometry x="55" y="487" width="20" height="20" as="geometry" />
        </mxCell>
        <mxCell id="WfSzIGiv-zTd-1wvaPKo-63" value="&lt;font style=&quot;font-size: 14px&quot;&gt;1&lt;/font&gt;" style="ellipse;whiteSpace=wrap;html=1;aspect=fixed;shadow=0;labelBackgroundColor=none;strokeColor=#EA6B66;strokeWidth=0;fillColor=#000912;fontColor=#FFFFFF;" parent="1" vertex="1">
          <mxGeometry x="93" y="487" width="20" height="20" as="geometry" />
        </mxCell>
        <mxCell id="WfSzIGiv-zTd-1wvaPKo-64" value="&lt;font style=&quot;font-size: 14px&quot;&gt;2&lt;/font&gt;" style="ellipse;whiteSpace=wrap;html=1;aspect=fixed;shadow=0;labelBackgroundColor=none;strokeColor=#EA6B66;strokeWidth=0;fillColor=#000912;fontColor=#FFFFFF;" parent="1" vertex="1">
          <mxGeometry x="380" y="498" width="20" height="20" as="geometry" />
        </mxCell>
        <mxCell id="WfSzIGiv-zTd-1wvaPKo-65" value="&lt;font style=&quot;font-size: 14px&quot;&gt;2&lt;/font&gt;" style="ellipse;whiteSpace=wrap;html=1;aspect=fixed;shadow=0;labelBackgroundColor=none;strokeColor=#EA6B66;strokeWidth=0;fillColor=#000912;fontColor=#FFFFFF;" parent="1" vertex="1">
          <mxGeometry x="590" y="507" width="20" height="20" as="geometry" />
        </mxCell>
        <mxCell id="WfSzIGiv-zTd-1wvaPKo-66" value="&lt;font style=&quot;font-size: 14px&quot;&gt;3&lt;/font&gt;" style="ellipse;whiteSpace=wrap;html=1;aspect=fixed;shadow=0;labelBackgroundColor=none;strokeColor=#EA6B66;strokeWidth=0;fillColor=#000912;fontColor=#FFFFFF;" parent="1" vertex="1">
          <mxGeometry x="381" y="431" width="20" height="20" as="geometry" />
        </mxCell>
        <mxCell id="WfSzIGiv-zTd-1wvaPKo-68" value="&lt;font style=&quot;font-size: 14px&quot;&gt;4&lt;/font&gt;" style="ellipse;whiteSpace=wrap;html=1;aspect=fixed;shadow=0;labelBackgroundColor=none;strokeColor=#EA6B66;strokeWidth=0;fillColor=#000912;fontColor=#FFFFFF;" parent="1" vertex="1">
          <mxGeometry x="476" y="355" width="20" height="20" as="geometry" />
        </mxCell>
        <mxCell id="WfSzIGiv-zTd-1wvaPKo-69" value="&lt;font style=&quot;font-size: 14px&quot;&gt;5&lt;/font&gt;" style="ellipse;whiteSpace=wrap;html=1;aspect=fixed;shadow=0;labelBackgroundColor=none;strokeColor=#EA6B66;strokeWidth=0;fillColor=#000912;fontColor=#FFFFFF;" parent="1" vertex="1">
          <mxGeometry x="520" y="420" width="20" height="20" as="geometry" />
        </mxCell>
        <mxCell id="WfSzIGiv-zTd-1wvaPKo-70" value="&lt;font style=&quot;font-size: 14px&quot;&gt;6&lt;/font&gt;" style="ellipse;whiteSpace=wrap;html=1;aspect=fixed;shadow=0;labelBackgroundColor=none;strokeColor=#EA6B66;strokeWidth=0;fillColor=#000912;fontColor=#FFFFFF;" parent="1" vertex="1">
          <mxGeometry x="567" y="270" width="20" height="20" as="geometry" />
        </mxCell>
        <mxCell id="WfSzIGiv-zTd-1wvaPKo-71" value="&lt;font style=&quot;font-size: 14px&quot;&gt;7&lt;/font&gt;" style="ellipse;whiteSpace=wrap;html=1;aspect=fixed;shadow=0;labelBackgroundColor=none;strokeColor=#EA6B66;strokeWidth=0;fillColor=#000912;fontColor=#FFFFFF;" parent="1" vertex="1">
          <mxGeometry x="681" y="269" width="20" height="20" as="geometry" />
        </mxCell>
        <object label="&lt;font style=&quot;font-size: 13px&quot;&gt;&lt;b&gt;v1.0.0&lt;/b&gt;&lt;/font&gt;" id="WfSzIGiv-zTd-1wvaPKo-77">
          <mxCell style="shape=callout;whiteSpace=wrap;html=1;perimeter=calloutPerimeter;shadow=0;labelBackgroundColor=none;strokeColor=#d79b00;strokeWidth=0;fillColor=#ffe6cc;size=20;position=0.5;fontSize=5;verticalAlign=top;" parent="1" vertex="1">
            <mxGeometry x="475" y="260" width="50" height="50" as="geometry" />
          </mxCell>
        </object>
        <mxCell id="NOU3lGueeJot1g6p17YN-2" value="qa (&lt;span style=&quot;background-color: rgb(218 , 232 , 252)&quot;&gt;QA&lt;/span&gt;)" style="text;html=1;strokeColor=none;fillColor=none;align=center;verticalAlign=middle;whiteSpace=wrap;rounded=0;shadow=0;labelBackgroundColor=none;fontStyle=1" vertex="1" parent="1">
          <mxGeometry x="840" y="388" width="90" height="20" as="geometry" />
        </mxCell>
        <mxCell id="NOU3lGueeJot1g6p17YN-7" value="" style="ellipse;whiteSpace=wrap;html=1;shadow=0;labelBackgroundColor=#EA6B66;strokeColor=#6c8ebf;strokeWidth=4;fillColor=#dae8fc;" vertex="1" parent="1">
          <mxGeometry x="668" y="388" width="20" height="20" as="geometry" />
        </mxCell>
        <mxCell id="NOU3lGueeJot1g6p17YN-9" value="" style="ellipse;whiteSpace=wrap;html=1;shadow=0;labelBackgroundColor=#EA6B66;strokeColor=#6c8ebf;strokeWidth=4;fillColor=#dae8fc;" vertex="1" parent="1">
          <mxGeometry x="735" y="391" width="20" height="20" as="geometry" />
        </mxCell>
        <mxCell id="NOU3lGueeJot1g6p17YN-10" value="" style="ellipse;whiteSpace=wrap;html=1;shadow=0;labelBackgroundColor=#EA6B66;strokeColor=#82b366;strokeWidth=4;fillColor=#d5e8d4;" vertex="1" parent="1">
          <mxGeometry x="735" y="312" width="20" height="20" as="geometry" />
        </mxCell>
        <mxCell id="NOU3lGueeJot1g6p17YN-11" value="" style="edgeStyle=elbowEdgeStyle;elbow=horizontal;endArrow=classic;html=1;strokeWidth=4;entryX=0.5;entryY=1;entryDx=0;entryDy=0;" edge="1" parent="1">
          <mxGeometry width="50" height="50" relative="1" as="geometry">
            <mxPoint x="744.5" y="387" as="sourcePoint" />
            <mxPoint x="744.5" y="332" as="targetPoint" />
            <Array as="points">
              <mxPoint x="744.5" y="372" />
            </Array>
          </mxGeometry>
        </mxCell>
        <mxCell id="NOU3lGueeJot1g6p17YN-12" value="&lt;font style=&quot;font-size: 14px&quot;&gt;8&lt;/font&gt;" style="ellipse;whiteSpace=wrap;html=1;aspect=fixed;shadow=0;labelBackgroundColor=none;strokeColor=#EA6B66;strokeWidth=0;fillColor=#000912;fontColor=#FFFFFF;" vertex="1" parent="1">
          <mxGeometry x="720" y="355" width="20" height="20" as="geometry" />
        </mxCell>
        <mxCell id="NOU3lGueeJot1g6p17YN-13" value="" style="ellipse;whiteSpace=wrap;html=1;shadow=0;labelBackgroundColor=#EA6B66;strokeColor=#d6b656;strokeWidth=4;fillColor=#fff2cc;" vertex="1" parent="1">
          <mxGeometry x="755" y="467" width="20" height="20" as="geometry" />
        </mxCell>
        <mxCell id="NOU3lGueeJot1g6p17YN-15" value="" style="edgeStyle=elbowEdgeStyle;elbow=horizontal;endArrow=classic;html=1;strokeWidth=4;dashed=1;" edge="1" parent="1">
          <mxGeometry width="50" height="50" relative="1" as="geometry">
            <mxPoint x="764.5" y="326" as="sourcePoint" />
            <mxPoint x="764.5" y="465" as="targetPoint" />
            <Array as="points">
              <mxPoint x="764.5" y="455" />
              <mxPoint x="774" y="415" />
              <mxPoint x="774" y="445" />
              <mxPoint x="774" y="425" />
              <mxPoint x="774" y="425" />
              <mxPoint x="774" y="445" />
              <mxPoint x="764" y="375" />
            </Array>
          </mxGeometry>
        </mxCell>
        <mxCell id="NOU3lGueeJot1g6p17YN-16" value="&lt;font style=&quot;font-size: 14px&quot;&gt;9&lt;/font&gt;" style="ellipse;whiteSpace=wrap;html=1;aspect=fixed;shadow=0;labelBackgroundColor=none;strokeColor=#EA6B66;strokeWidth=0;fillColor=#000912;fontColor=#FFFFFF;" vertex="1" parent="1">
          <mxGeometry x="768" y="420" width="20" height="20" as="geometry" />
        </mxCell>
        <object label="&lt;font style=&quot;font-size: 13px&quot;&gt;&lt;b&gt;v1.0.1&lt;/b&gt;&lt;/font&gt;" id="NOU3lGueeJot1g6p17YN-17">
          <mxCell style="shape=callout;whiteSpace=wrap;html=1;perimeter=calloutPerimeter;shadow=0;labelBackgroundColor=none;strokeColor=#d79b00;strokeWidth=0;fillColor=#ffe6cc;size=20;position=0.5;fontSize=5;verticalAlign=top;" vertex="1" parent="1">
            <mxGeometry x="718" y="256" width="50" height="50" as="geometry" />
          </mxCell>
        </object>
      </root>
    </mxGraphModel>
  </diagram>
</mxfile>
